<svg width="36" height="36" viewBox="0 0 36 36" fill="none" xmlns="http://www.w3.org/2000/svg">
<path fill-rule="evenodd" clip-rule="evenodd" d="M34.5434 19.0251C35.2876 18.2809 35.6458 17.4326 35.3435 17.1303C35.0411 16.8279 34.1928 17.1861 33.4486 17.9303L18.6264 32.7525C18.471 32.9079 18.3324 33.0678 18.2132 33.2264C18.094 33.0678 17.9554 32.9079 17.8 32.7525L2.97782 17.9303C2.23363 17.1861 1.38527 16.8279 1.08294 17.1303C0.780614 17.4326 1.13881 18.2809 1.883 19.0251L16.7052 33.8473C17.0777 34.2198 17.4763 34.4956 17.8195 34.6403C17.8217 34.6427 17.824 34.645 17.8264 34.6473C17.9144 34.7354 18.0487 34.7674 18.2132 34.7502C18.3777 34.7674 18.512 34.7354 18.6 34.6473C18.6024 34.645 18.6046 34.6427 18.6069 34.6403C18.9501 34.4956 19.3487 34.2198 19.7212 33.8473L34.5434 19.0251Z" fill="#E5E5E5"/>
</svg>
